<svg width="137" height="164" viewBox="0 0 137 164" fill="none" xmlns="http://www.w3.org/2000/svg">
<path d="M68.5734 0C91.998 17.7619 106.927 23.2197 136.578 24.2971C133.043 92.5516 125.481 133.055 68.5734 164.005C14.2268 135.08 3.22818 99.2644 0 24.2971C30.2279 22.999 45.2064 17.5945 68.5734 0Z" fill="#044143"/>
<path d="M87.1648 72.7731L85.2034 71.8983C84.5409 71.6029 84.3744 71.2207 84.6707 70.5247C85.0281 69.6772 85.4177 68.8406 85.7917 67.9976C86.2338 66.9373 86.2514 65.745 85.8407 64.6641C85.43 63.583 84.6224 62.6938 83.5808 62.1773C82.9289 61.8866 82.2455 61.6802 81.5801 61.4051C80.71 61.0447 80.5591 60.697 80.9182 59.8595C81.4752 58.5685 82.0676 57.268 82.6422 55.9726C82.9464 55.2862 83.3888 55.111 84.0806 55.4102C85.4185 55.9855 86.7477 56.5813 88.0709 57.1898C88.7622 57.4982 88.9078 57.9203 88.605 58.6381C88.2785 59.4162 87.9208 60.1808 87.5696 60.9724C87.1798 61.8948 87.0974 62.9201 87.3354 63.8984C87.5732 64.8767 88.1184 65.7573 88.8914 66.4114C89.4927 66.8894 90.1915 67.2306 90.9379 67.4102C91.2823 67.5037 91.6142 67.6392 91.9258 67.8138C92.4757 68.1175 92.6534 68.5664 92.4098 69.129C91.812 70.5188 91.2064 71.9054 90.5706 73.2755C90.322 73.8357 89.8535 73.9871 89.2646 73.7152C88.5625 73.3901 87.8666 73.0856 87.1651 72.7725L87.1648 72.7731Z" fill="white"/>
<path d="M70.0671 61.2663L68.0872 60.4338C67.4185 60.1528 67.2438 59.7742 67.5252 59.0719C67.8644 58.2168 68.2358 57.3723 68.5917 56.5213C69.0112 55.4519 69.0029 54.2593 68.5691 53.1876C68.1352 52.1155 67.3089 51.2437 66.2565 50.7501C65.5984 50.4735 64.9109 50.2819 64.2396 50.0214C63.3622 49.6799 63.2037 49.3353 63.5446 48.4905C64.074 47.1877 64.638 45.8749 65.185 44.5671C65.4747 43.8746 65.9129 43.6897 66.6112 43.9739C67.9611 44.5204 69.3025 45.0874 70.6387 45.6671C71.3364 45.9605 71.4912 46.3796 71.2036 47.1037C70.8937 47.8888 70.5525 48.6607 70.2183 49.4597C69.8484 50.3903 69.788 51.4171 70.0468 52.3901C70.3054 53.3631 70.8694 54.2317 71.6562 54.869C72.2674 55.334 72.9736 55.66 73.7238 55.8235C74.0702 55.9096 74.4047 56.0377 74.7202 56.2056C75.2765 56.4975 75.4636 56.9422 75.2323 57.5101C74.6645 58.9126 74.0887 60.3118 73.4825 61.6954C73.2462 62.261 72.7807 62.4224 72.1862 62.1631C71.4774 61.853 70.775 61.564 70.0671 61.2663Z" fill="white"/>
<path d="M47.9494 52.1104V54.263C47.9494 54.99 48.2299 55.298 48.9845 55.3095C49.902 55.3265 50.8225 55.3095 51.7427 55.3095C52.8883 55.3351 53.982 55.8036 54.7999 56.6193C55.6183 57.435 56.1003 58.5365 56.1475 59.7005C56.1475 60.416 56.0578 61.1259 56.0381 61.8473C56.0129 62.7909 56.2685 63.0704 57.1776 63.0819C58.5803 63.096 60.0059 63.0819 61.42 63.0819C62.169 63.0819 62.5084 62.7479 62.5169 61.9925C62.5366 60.5327 62.5336 59.073 62.5169 57.6132C62.5169 56.8545 62.1912 56.5494 61.4141 56.5353C60.5722 56.5182 59.7306 56.5353 58.8664 56.5353C57.8674 56.5176 56.8997 56.1763 56.105 55.5608C55.31 54.9456 54.7292 54.0881 54.4472 53.1139C54.2561 52.3688 54.2288 51.5898 54.3687 50.8329C54.4235 50.4793 54.4349 50.12 54.4024 49.7638C54.349 49.1365 54.0125 48.7914 53.4007 48.7858C51.8913 48.7687 50.3819 48.7602 48.8748 48.7858C48.2633 48.7858 47.935 49.1535 47.9435 49.8038C47.9547 50.5792 47.9494 51.3405 47.9494 52.1104Z" fill="white"/>
<path d="M84.8414 80.9596L84.0035 82.9417C83.7207 83.611 83.3425 83.7847 82.6434 83.4999C81.7921 83.1566 80.951 82.7806 80.1038 82.4205C79.0388 81.9957 77.8498 81.9993 76.7793 82.4302C75.7084 82.8608 74.836 83.6866 74.3394 84.7398C74.0609 85.3985 73.8672 86.0873 73.6048 86.7592C73.261 87.6379 72.9168 87.7951 72.0755 87.45C70.7783 86.9142 69.4715 86.3433 68.1693 85.7901C67.4796 85.497 67.2969 85.0567 67.583 84.358C68.133 83.0064 68.7037 81.6633 69.2871 80.3261C69.5823 79.6277 70.0009 79.4742 70.722 79.7652C71.5038 80.0789 72.2722 80.424 73.0678 80.7623C73.9944 81.1368 75.0181 81.2015 75.9896 80.9458C76.9607 80.6903 77.8293 80.1283 78.4681 79.3417C78.9342 78.7305 79.2622 78.0239 79.4281 77.2722C79.5152 76.9254 79.6445 76.5903 79.813 76.2746C80.1062 75.7178 80.5506 75.532 81.1161 75.766C82.5126 76.341 83.9056 76.9236 85.2831 77.5371C85.846 77.7764 86.0054 78.2434 85.7445 78.8387C85.4326 79.5483 85.1412 80.2514 84.8416 80.9602L84.8414 80.9596Z" fill="white"/>
<path d="M47.9494 76.6416V78.7942C47.9494 79.5211 48.2299 79.8292 48.9845 79.8407C49.902 79.8577 50.8225 79.8407 51.7427 79.8407C52.8883 79.8662 53.982 80.3348 54.7999 81.1505C55.6183 81.9662 56.1003 83.0677 56.1475 84.2317C56.1475 84.9472 56.0578 85.6571 56.0381 86.3785C56.0129 87.322 56.2685 87.6016 57.1776 87.6131C58.5803 87.6272 60.0059 87.6131 61.42 87.6131C62.169 87.6131 62.5084 87.2791 62.5169 86.5237C62.5366 85.0639 62.5336 83.6041 62.5169 82.1444C62.5169 81.3857 62.1912 81.0806 61.4141 81.0664C60.5722 81.0494 59.7306 81.0664 58.8664 81.0664C57.8674 81.0488 56.8997 80.7075 56.105 80.092C55.31 79.4768 54.7292 78.6193 54.4472 77.6451C54.2561 76.9 54.2288 76.121 54.3687 75.3641C54.4235 75.0104 54.4349 74.6512 54.4024 74.295C54.349 73.6677 54.0125 73.3226 53.4007 73.317C51.8913 73.2999 50.3819 73.2914 48.8748 73.317C48.2633 73.317 47.935 73.6847 47.9435 74.3349C47.9547 75.1104 47.9494 75.8717 47.9494 76.6416Z" fill="white"/>
<path d="M58.4489 42.2602V44.4214C58.4489 45.1483 58.1684 45.499 57.4416 45.5134C55.9827 45.5363 54.5234 45.5363 53.0644 45.5134C52.3462 45.5134 52.0545 45.1627 52.046 44.4243C52.0255 42.9931 52.0173 41.5598 52.0208 40.1247C52.0208 39.2863 52.3013 39.0185 53.1093 39.0071C54.5122 38.9871 55.9322 38.953 57.3434 38.9415C58.1854 38.9415 58.4378 39.2096 58.4486 40.0506C58.4571 40.7805 58.4489 41.5189 58.4489 42.2602Z" fill="white"/>
<path d="M73.4529 40.5829L72.3272 42.4257C71.9484 43.0456 71.5266 43.1979 70.8996 42.8293C69.6434 42.0847 68.3993 41.3201 67.1669 40.5364C66.5546 40.1602 66.4883 39.7084 66.8659 39.0743C67.5938 37.843 68.3334 36.6166 69.0841 35.3946C69.5209 34.6797 69.8996 34.5983 70.5944 35.0116C71.8013 35.7294 73.0298 36.444 74.2394 37.1736C74.9573 37.6146 75.0329 37.9752 74.604 38.6984C74.2312 39.3254 73.8392 39.9509 73.4529 40.5829Z" fill="white"/>
<path d="M82.6508 50.1662L80.7307 51.148C80.0849 51.4784 79.6457 51.387 79.3031 50.7444C78.62 49.4516 77.9569 48.1479 77.3144 46.8343C76.9881 46.1929 77.1672 45.7728 77.8192 45.4298C79.0814 44.761 80.3508 44.1026 81.6274 43.4538C82.372 43.0728 82.7375 43.2019 83.1148 43.9185C83.77 45.1628 84.4454 46.4157 85.0968 47.6711C85.4793 48.4231 85.3559 48.7702 84.6137 49.1624C83.9691 49.5016 83.3092 49.8293 82.6505 50.1662H82.6508Z" fill="white"/>
<path d="M78.079 70.0109L76.1589 70.9927C75.5131 71.3231 75.074 71.2317 74.7313 70.5891C74.0483 69.2963 73.3852 67.9927 72.7426 66.679C72.4163 66.0376 72.5954 65.6175 73.2474 65.2745C74.5097 64.6057 75.779 63.9473 77.0556 63.2985C77.8002 62.9176 78.1658 63.0466 78.543 63.7633C79.1982 65.0076 79.8736 66.2604 80.525 67.5159C80.9075 68.2678 80.7841 68.615 80.0419 69.0071C79.3973 69.3463 78.7377 69.6741 78.079 70.0109Z" fill="white"/>
<path d="M94.1138 61.5235L91.965 61.3551C91.2421 61.2983 90.9153 60.9906 90.9578 60.263C91.0486 58.8027 91.1624 57.3438 91.299 55.8873C91.355 55.1694 91.7264 54.9049 92.4613 54.954C93.886 55.0448 95.3116 55.1483 96.738 55.2638C97.5714 55.3291 97.8159 55.6304 97.7643 56.439C97.6749 57.8432 97.5981 59.2654 97.4996 60.6772C97.4339 61.5188 97.1478 61.7501 96.3109 61.6958C95.5845 61.6476 94.8507 61.5814 94.1138 61.5235Z" fill="white"/>
<path d="M93.4367 76.8128L91.6922 75.5438C91.1053 75.117 90.9869 74.6834 91.4019 74.0852C92.2403 72.8876 93.0972 71.703 93.9722 70.5325C94.3938 69.9496 94.8485 69.9187 95.4494 70.3453C96.6167 71.1689 97.7784 72.004 98.9349 72.8494C99.6115 73.3418 99.6631 73.7266 99.1979 74.3892C98.3899 75.5397 97.5838 76.7123 96.7645 77.8646C96.2702 78.5477 95.9055 78.5953 95.2202 78.1103C94.626 77.6885 94.035 77.2481 93.4364 76.8128H93.4367Z" fill="white"/>
<path d="M86.273 88.8167L85.4463 86.8207C85.1681 86.1494 85.2933 85.7175 85.9588 85.4251C87.2976 84.843 88.6451 84.2816 90.0012 83.7416C90.6643 83.4656 91.068 83.6769 91.3585 84.3557C91.9248 85.6696 92.4807 86.9901 93.0262 88.3167C93.3469 89.0909 93.1904 89.4463 92.4484 89.7676C91.1603 90.3255 89.862 90.9032 88.5631 91.4567C87.7856 91.7803 87.45 91.6298 87.1182 90.8573C86.8312 90.1865 86.5565 89.5013 86.273 88.8167Z" fill="white"/>
<path d="M73.5042 95.3134L73.839 93.1785C73.9516 92.4603 74.2831 92.1576 75.0031 92.2566C76.448 92.4615 77.8894 92.6887 79.3272 92.9386C80.0367 93.0506 80.2706 93.4424 80.1645 94.1732C79.9631 95.5903 79.7491 97.0075 79.5231 98.4243C79.3932 99.2524 79.0746 99.4735 78.2746 99.3588C76.8853 99.1598 75.4774 98.9726 74.0814 98.7639C73.2498 98.6328 73.0419 98.3285 73.1615 97.496C73.2662 96.7738 73.389 96.0454 73.5039 95.3131L73.5042 95.3134Z" fill="white"/>
<path d="M54.3636 92.6994L55.7613 91.0542C56.2315 90.5007 56.6718 90.4163 57.234 90.8778C58.3594 91.809 59.4702 92.7582 60.5659 93.7241C61.1126 94.1912 61.108 94.6477 60.6369 95.2157C59.7269 96.3186 58.8062 97.415 57.8754 98.505C57.3334 99.1432 56.9465 99.1646 56.3241 98.6478C55.243 97.7507 54.1402 96.8533 53.0585 95.9444C52.4177 95.397 52.3989 95.0287 52.9345 94.3814C53.4 93.8203 53.884 93.2638 54.3636 92.6994Z" fill="white"/>
<path d="M45.5379 64.1497L46.9356 62.5045C47.4058 61.951 47.8461 61.8666 48.4084 62.3281C49.5337 63.2594 50.6445 64.2085 51.7402 65.1745C52.287 65.6416 52.2823 66.0981 51.8112 66.666C50.9013 67.7689 49.9805 68.8653 49.0498 69.9553C48.5077 70.5935 48.1208 70.6149 47.4984 70.0982C46.4173 69.201 45.3145 68.3036 44.2328 67.3947C43.592 66.8473 43.5732 66.479 44.1088 65.8317C44.5743 65.2706 45.0583 64.7141 45.5379 64.1497Z" fill="white"/>
<path d="M61.5423 69.6204L62.94 67.9752C63.4102 67.4217 63.8505 67.3373 64.4128 67.7988C65.5381 68.73 66.6489 69.6792 67.7446 70.6451C68.2914 71.1122 68.2867 71.5687 67.8156 72.1367C66.9057 73.2396 65.9849 74.336 65.0542 75.426C64.5121 76.0641 64.1252 76.0856 63.5028 75.5688C62.4217 74.6717 61.3189 73.7743 60.2372 72.8654C59.5964 72.318 59.5776 71.9497 60.1132 71.3024C60.5787 70.7413 61.0627 70.1848 61.5423 69.6204Z" fill="white"/>
<path d="M43.1076 83.2875L45.1564 82.6167C45.8456 82.3909 46.2651 82.5496 46.5043 83.2378C46.9789 84.6214 47.4318 86.0124 47.863 87.4101C48.0858 88.0947 47.844 88.4816 47.1466 88.7191C45.7961 89.183 44.44 89.6356 43.0783 90.0777C42.2836 90.3379 41.9424 90.1539 41.6809 89.387C41.2265 88.0557 40.7534 86.7129 40.3046 85.371C40.0434 84.5685 40.219 84.2449 41.0131 83.9732C41.7023 83.7387 42.4053 83.5176 43.1079 83.2875H43.1076Z" fill="white"/>
<path d="M40.9366 69.9338L43.0332 70.435C43.7385 70.6038 44.0138 70.9586 43.859 71.6705C43.5427 73.0988 43.2044 74.5224 42.8441 75.9402C42.6776 76.6407 42.2698 76.8441 41.5513 76.6809C40.158 76.369 38.7659 76.0448 37.3746 75.7085C36.5614 75.5142 36.3665 75.1785 36.5427 74.3875C36.8487 73.0142 37.1448 71.6214 37.4608 70.2422C37.656 69.4212 37.9744 69.2369 38.7929 69.4212C39.5029 69.582 40.2172 69.7616 40.9363 69.9335L40.9366 69.9338Z" fill="white"/>
<path d="M43.2736 56.0856L44.8003 57.6109C45.3139 58.1241 45.3637 58.5709 44.861 59.0971C43.8473 60.1495 42.8172 61.1862 41.7712 62.2062C41.2644 62.7163 40.8106 62.676 40.2829 62.161C39.2572 61.1654 38.2391 60.1595 37.2278 59.1441C36.6356 58.5524 36.6441 58.1641 37.2067 57.5821C38.1828 56.5712 39.161 55.5385 40.1489 54.5282C40.7432 53.9303 41.1108 53.94 41.7126 54.5259C42.2341 55.035 42.7497 55.5623 43.2736 56.0856Z" fill="white"/>
<path d="M90.3386 116.491H69.1463V93.5136C69.1463 93.1426 68.8464 92.8419 68.4765 92.8419H64.8717C64.5017 92.8419 64.2018 93.1426 64.2018 93.5136V116.491H43.665C43.295 116.491 42.9951 116.792 42.9951 117.163V120.777C42.9951 121.148 43.295 121.449 43.665 121.449H90.3386C90.7086 121.449 91.0085 121.148 91.0085 120.777V117.163C91.0085 116.792 90.7086 116.491 90.3386 116.491Z" fill="white"/>
<circle cx="111.32" cy="22.6012" r="20.4995" fill="#14A4A9"/>
<path d="M106.849 31.35C105.557 33.3614 102.945 30.4575 98.5078 25.7512C100.184 24.5304 102.507 24.7528 103.921 26.2694L105.314 27.7642C112.194 19.9592 116.343 16.6948 124.132 12.3516C115.818 19.3522 112.877 23.0291 106.849 31.35Z" fill="white"/>
</svg>
