<svg width="585" height="159" viewBox="0 0 585 159" fill="none" xmlns="http://www.w3.org/2000/svg">
<path d="M154.636 88.2309V47.761H170.262C170.656 47.761 171.096 47.7797 171.583 47.8172C172.089 47.8359 172.595 47.8921 173.101 47.9858C175.218 48.3043 177.007 49.0444 178.469 50.206C179.949 51.3489 181.063 52.7916 181.813 54.5341C182.581 56.2765 182.965 58.2063 182.965 60.3235C182.965 62.422 182.581 64.3424 181.813 66.0849C181.045 67.8273 179.921 69.2794 178.44 70.441C176.979 71.5839 175.199 72.3146 173.101 72.6331C172.595 72.7081 172.089 72.7643 171.583 72.8017C171.096 72.8392 170.656 72.8579 170.262 72.8579H158.768V88.2309H154.636ZM158.768 68.9234H170.15C170.487 68.9234 170.88 68.9046 171.33 68.8672C171.78 68.8297 172.22 68.7641 172.651 68.6704C174.037 68.3707 175.171 67.7992 176.052 66.9561C176.951 66.113 177.616 65.1106 178.047 63.9489C178.497 62.7873 178.721 61.5788 178.721 60.3235C178.721 59.0682 178.497 57.8597 178.047 56.6981C177.616 55.5177 176.951 54.506 176.052 53.6628C175.171 52.8197 174.037 52.2483 172.651 51.9485C172.22 51.8548 171.78 51.7986 171.33 51.7799C170.88 51.7424 170.487 51.7237 170.15 51.7237H158.768V68.9234ZM186.873 52.1171V47.4799H191.004V52.1171H186.873ZM186.873 88.2309V57.8785H191.004V88.2309H186.873ZM193.809 88.2309L205.668 72.8861L194.061 57.8785H199.008L208.085 69.7103L217.079 57.8785H222.025L210.418 72.8861L222.306 88.2309H217.332L208.085 76.0618L198.783 88.2309H193.809ZM236.32 89.074C233.359 89.074 230.792 88.4183 228.619 87.1067C226.464 85.7952 224.787 83.9497 223.588 81.5702C222.389 79.1907 221.79 76.3991 221.79 73.1952C221.79 69.8789 222.38 67.0123 223.56 64.5953C224.741 62.1784 226.399 60.3141 228.535 59.0026C230.689 57.6911 233.228 57.0353 236.151 57.0353C239.149 57.0353 241.706 57.7286 243.823 59.115C245.94 60.4828 247.542 62.4501 248.629 65.0169C249.716 67.5837 250.212 70.6471 250.119 74.2069H245.903V72.7455C245.828 68.811 244.976 65.8413 243.346 63.8365C241.734 61.8318 239.373 60.8294 236.263 60.8294C233.003 60.8294 230.502 61.888 228.76 64.0052C227.036 66.1223 226.174 69.1388 226.174 73.0547C226.174 76.8768 227.036 79.8465 228.76 81.9637C230.502 84.0621 232.966 85.1113 236.151 85.1113C238.324 85.1113 240.217 84.6148 241.828 83.6218C243.458 82.6101 244.741 81.158 245.678 79.2657L249.528 80.7552C248.329 83.397 246.559 85.4486 244.217 86.91C241.893 88.3527 239.261 89.074 236.32 89.074ZM224.713 74.2069V70.7501H247.898V74.2069H224.713ZM254.669 88.2309V46.9179H258.801V88.2309H254.669ZM277.821 89.074C274.861 89.074 272.294 88.4183 270.121 87.1067C267.966 85.7952 266.289 83.9497 265.09 81.5702C263.891 79.1907 263.292 76.3991 263.292 73.1952C263.292 69.8789 263.882 67.0123 265.062 64.5953C266.242 62.1784 267.901 60.3141 270.037 59.0026C272.191 57.6911 274.73 57.0353 277.653 57.0353C280.651 57.0353 283.208 57.7286 285.325 59.115C287.442 60.4828 289.044 62.4501 290.131 65.0169C291.218 67.5837 291.714 70.6471 291.621 74.2069H287.405V72.7455C287.33 68.811 286.477 65.8413 284.847 63.8365C283.236 61.8318 280.875 60.8294 277.765 60.8294C274.505 60.8294 272.004 61.888 270.261 64.0052C268.538 66.1223 267.676 69.1388 267.676 73.0547C267.676 76.8768 268.538 79.8465 270.261 81.9637C272.004 84.0621 274.468 85.1113 277.653 85.1113C279.826 85.1113 281.718 84.6148 283.33 83.6218C284.96 82.6101 286.243 81.158 287.18 79.2657L291.03 80.7552C289.831 83.397 288.061 85.4486 285.719 86.91C283.395 88.3527 280.763 89.074 277.821 89.074ZM266.214 74.2069V70.7501H289.4V74.2069H266.214ZM312.134 88.2309C310.429 88.5869 308.743 88.7274 307.076 88.6525C305.427 88.5775 303.947 88.2215 302.635 87.5845C301.342 86.9475 300.359 85.9545 299.684 84.6055C299.141 83.4813 298.841 82.3478 298.785 81.2049C298.747 80.0432 298.729 78.7223 298.729 77.2422V49.4472H302.832V77.0736C302.832 78.3476 302.841 79.4156 302.86 80.2774C302.897 81.1206 303.094 81.87 303.45 82.5258C304.125 83.7811 305.193 84.5305 306.654 84.7741C308.134 85.0177 309.961 84.9615 312.134 84.6055V88.2309ZM292.237 61.4196V57.8785H312.134V61.4196H292.237ZM331.273 88.2309C329.568 88.5869 327.882 88.7274 326.214 88.6525C324.566 88.5775 323.086 88.2215 321.774 87.5845C320.481 86.9475 319.498 85.9545 318.823 84.6055C318.28 83.4813 317.98 82.3478 317.924 81.2049C317.886 80.0432 317.868 78.7223 317.868 77.2422V49.4472H321.971V77.0736C321.971 78.3476 321.98 79.4156 321.999 80.2774C322.036 81.1206 322.233 81.87 322.589 82.5258C323.264 83.7811 324.331 84.5305 325.793 84.7741C327.273 85.0177 329.1 84.9615 331.273 84.6055V88.2309ZM311.375 61.4196V57.8785H331.273V61.4196H311.375ZM347.866 89.074C344.906 89.074 342.339 88.4183 340.166 87.1067C338.011 85.7952 336.334 83.9497 335.135 81.5702C333.936 79.1907 333.337 76.3991 333.337 73.1952C333.337 69.8789 333.927 67.0123 335.107 64.5953C336.288 62.1784 337.946 60.3141 340.082 59.0026C342.236 57.6911 344.775 57.0353 347.698 57.0353C350.696 57.0353 353.253 57.7286 355.37 59.115C357.487 60.4828 359.089 62.4501 360.176 65.0169C361.263 67.5837 361.759 70.6471 361.666 74.2069H357.45V72.7455C357.375 68.811 356.523 65.8413 354.893 63.8365C353.281 61.8318 350.92 60.8294 347.81 60.8294C344.55 60.8294 342.049 61.888 340.306 64.0052C338.583 66.1223 337.721 69.1388 337.721 73.0547C337.721 76.8768 338.583 79.8465 340.306 81.9637C342.049 84.0621 344.513 85.1113 347.698 85.1113C349.871 85.1113 351.764 84.6148 353.375 83.6218C355.005 82.6101 356.288 81.158 357.225 79.2657L361.075 80.7552C359.876 83.397 358.106 85.4486 355.764 86.91C353.44 88.3527 350.808 89.074 347.866 89.074ZM336.259 74.2069V70.7501H359.445V74.2069H336.259ZM391.043 89.074C387.015 89.074 383.614 88.1841 380.841 86.4041C378.068 84.6055 375.97 82.1229 374.546 78.9565C373.122 75.7901 372.41 72.1366 372.41 67.9959C372.41 63.8553 373.122 60.2017 374.546 57.0353C375.97 53.8689 378.068 51.3958 380.841 49.6158C383.614 47.8172 387.015 46.9179 391.043 46.9179C395.746 46.9179 399.587 48.1263 402.566 50.5433C405.545 52.9415 407.587 56.1641 408.693 60.2111L404.477 61.3072C403.615 58.1033 402.069 55.5645 399.84 53.6909C397.61 51.8173 394.678 50.8805 391.043 50.8805C387.877 50.8805 385.244 51.6019 383.146 53.0445C381.047 54.4872 379.464 56.5014 378.396 59.0869C377.347 61.6538 376.804 64.6234 376.766 67.9959C376.748 71.3684 377.263 74.3381 378.312 76.9049C379.38 79.4718 380.973 81.4859 383.09 82.9473C385.226 84.39 387.877 85.1113 391.043 85.1113C394.678 85.1113 397.61 84.1745 399.84 82.3009C402.069 80.4086 403.615 77.8698 404.477 74.6847L408.693 75.7808C407.587 79.8278 405.545 83.0597 402.566 85.4767C399.587 87.8749 395.746 89.074 391.043 89.074ZM425.489 89.074C422.528 89.074 419.962 88.4183 417.788 87.1067C415.634 85.7952 413.957 83.9497 412.758 81.5702C411.558 79.1907 410.959 76.3991 410.959 73.1952C410.959 69.8789 411.549 67.0123 412.729 64.5953C413.91 62.1784 415.568 60.3141 417.704 59.0026C419.859 57.6911 422.397 57.0353 425.32 57.0353C428.318 57.0353 430.875 57.7286 432.993 59.115C435.11 60.4828 436.712 62.4501 437.798 65.0169C438.885 67.5837 439.382 70.6471 439.288 74.2069H435.072V72.7455C434.997 68.811 434.145 65.8413 432.515 63.8365C430.903 61.8318 428.543 60.8294 425.433 60.8294C422.172 60.8294 419.671 61.888 417.929 64.0052C416.205 66.1223 415.343 69.1388 415.343 73.0547C415.343 76.8768 416.205 79.8465 417.929 81.9637C419.671 84.0621 422.135 85.1113 425.32 85.1113C427.493 85.1113 429.386 84.6148 430.997 83.6218C432.627 82.6101 433.911 81.158 434.847 79.2657L438.698 80.7552C437.499 83.397 435.728 85.4486 433.386 86.91C431.063 88.3527 428.43 89.074 425.489 89.074ZM413.882 74.2069V70.7501H437.068V74.2069H413.882ZM443.276 88.2309V57.8785H446.986V65.1855L446.255 64.23C446.593 63.3307 447.033 62.5063 447.576 61.7568C448.12 60.9886 448.71 60.361 449.347 59.8738C450.134 59.1806 451.052 58.656 452.101 58.3C453.15 57.9253 454.209 57.7098 455.277 57.6536C456.345 57.5787 457.319 57.6536 458.2 57.8785V61.7568C457.094 61.4758 455.886 61.4102 454.574 61.5601C453.263 61.71 452.054 62.2346 450.949 63.1339C449.937 63.9208 449.178 64.867 448.672 65.9724C448.167 67.0591 447.829 68.2208 447.661 69.4573C447.492 70.6752 447.408 71.8837 447.408 73.0828V88.2309H443.276ZM477.808 88.2309C476.103 88.5869 474.417 88.7274 472.749 88.6525C471.101 88.5775 469.62 88.2215 468.309 87.5845C467.016 86.9475 466.032 85.9545 465.358 84.6055C464.815 83.4813 464.515 82.3478 464.459 81.2049C464.421 80.0432 464.402 78.7223 464.402 77.2422V49.4472H468.506V77.0736C468.506 78.3476 468.515 79.4156 468.534 80.2774C468.571 81.1206 468.768 81.87 469.124 82.5258C469.798 83.7811 470.866 84.5305 472.328 84.7741C473.808 85.0177 475.635 84.9615 477.808 84.6055V88.2309ZM457.91 61.4196V57.8785H477.808V61.4196H457.91ZM482.102 52.1171V47.4799H486.233V52.1171H482.102ZM482.102 88.2309V57.8785H486.233V88.2309H482.102ZM495.417 88.2309V55.6301C495.417 54.8432 495.455 54.0657 495.53 53.2975C495.624 52.5293 495.802 51.7986 496.064 51.1054C496.326 50.3934 496.738 49.7376 497.3 49.1381C497.919 48.4636 498.593 47.9764 499.324 47.6767C500.055 47.3581 500.813 47.1521 501.6 47.0584C502.406 46.9647 503.193 46.9179 503.961 46.9179H507.839V50.4028H504.242C502.668 50.4028 501.488 50.7869 500.701 51.555C499.933 52.3232 499.549 53.5317 499.549 55.1805V88.2309H495.417ZM490.162 61.4196V57.8785H507.839V61.4196H490.162ZM513.741 52.1171V47.4799H517.873V52.1171H513.741ZM513.741 88.2309V57.8785H517.873V88.2309H513.741ZM536.873 89.074C533.913 89.074 531.346 88.4183 529.173 87.1067C527.018 85.7952 525.341 83.9497 524.142 81.5702C522.943 79.1907 522.343 76.3991 522.343 73.1952C522.343 69.8789 522.934 67.0123 524.114 64.5953C525.294 62.1784 526.952 60.3141 529.088 59.0026C531.243 57.6911 533.782 57.0353 536.705 57.0353C539.702 57.0353 542.26 57.7286 544.377 59.115C546.494 60.4828 548.096 62.4501 549.183 65.0169C550.27 67.5837 550.766 70.6471 550.672 74.2069H546.457V72.7455C546.382 68.811 545.529 65.8413 543.899 63.8365C542.288 61.8318 539.927 60.8294 536.817 60.8294C533.557 60.8294 531.056 61.888 529.313 64.0052C527.589 66.1223 526.728 69.1388 526.728 73.0547C526.728 76.8768 527.589 79.8465 529.313 81.9637C531.056 84.0621 533.519 85.1113 536.705 85.1113C538.878 85.1113 540.77 84.6148 542.382 83.6218C544.012 82.6101 545.295 81.158 546.232 79.2657L550.082 80.7552C548.883 83.397 547.112 85.4486 544.77 86.91C542.447 88.3527 539.815 89.074 536.873 89.074ZM525.266 74.2069V70.7501H548.452V74.2069H525.266ZM566.437 89.074C563.607 89.074 561.19 88.3714 559.186 86.9662C557.181 85.5423 555.645 83.6218 554.577 81.2049C553.509 78.7879 552.975 76.0618 552.975 73.0266C552.975 70.0101 553.499 67.2933 554.549 64.8764C555.616 62.4594 557.143 60.5483 559.129 59.1431C561.116 57.7379 563.495 57.0353 566.268 57.0353C569.116 57.0353 571.514 57.7286 573.463 59.115C575.411 60.5015 576.882 62.4032 577.875 64.8202C578.887 67.2184 579.393 69.9539 579.393 73.0266C579.393 76.0431 578.896 78.7692 577.903 81.2049C576.91 83.6218 575.449 85.5423 573.519 86.9662C571.589 88.3714 569.228 89.074 566.437 89.074ZM566.858 85.2238C569.013 85.2238 570.793 84.6991 572.198 83.6499C573.603 82.6007 574.652 81.158 575.346 79.3219C576.039 77.467 576.385 75.3686 576.385 73.0266C576.385 70.6471 576.039 68.5486 575.346 66.7313C574.652 64.8951 573.603 63.4618 572.198 62.4313C570.811 61.4008 569.06 60.8856 566.942 60.8856C564.769 60.8856 562.97 61.4196 561.546 62.4875C560.122 63.5555 559.064 65.0075 558.371 66.8437C557.696 68.6798 557.359 70.7408 557.359 73.0266C557.359 75.3311 557.706 77.4108 558.399 79.2657C559.111 81.1018 560.169 82.5539 561.575 83.6218C562.98 84.6898 564.741 85.2238 566.858 85.2238ZM576.385 88.2309V65.3823H575.936V47.761H580.095V88.2309H576.385Z" fill="white"/>
<path d="M158.178 125.999C156.669 125.999 155.395 125.666 154.356 124.999C153.317 124.325 152.531 123.395 151.998 122.209C151.464 121.023 151.198 119.654 151.198 118.103C151.198 116.552 151.464 115.184 151.998 113.997C152.531 112.811 153.317 111.885 154.356 111.218C155.395 110.544 156.669 110.207 158.178 110.207C159.939 110.207 161.378 110.66 162.494 111.566C163.61 112.464 164.375 113.671 164.789 115.187L163.21 115.598C162.887 114.397 162.308 113.446 161.473 112.745C160.637 112.043 159.539 111.692 158.178 111.692C156.991 111.692 156.005 111.962 155.219 112.502C154.433 113.043 153.84 113.797 153.44 114.766C153.047 115.727 152.843 116.84 152.829 118.103C152.822 119.367 153.015 120.479 153.408 121.441C153.808 122.402 154.405 123.157 155.198 123.704C155.998 124.244 156.991 124.515 158.178 124.515C159.539 124.515 160.637 124.164 161.473 123.462C162.308 122.753 162.887 121.802 163.21 120.609L164.789 121.019C164.375 122.535 163.61 123.746 162.494 124.652C161.378 125.55 159.939 125.999 158.178 125.999ZM171.86 125.999C170.73 125.999 169.765 125.743 168.965 125.231C168.165 124.718 167.55 124.009 167.122 123.104C166.694 122.199 166.48 121.16 166.48 119.988C166.48 118.795 166.698 117.749 167.133 116.85C167.568 115.952 168.186 115.254 168.986 114.755C169.793 114.25 170.751 113.997 171.86 113.997C172.997 113.997 173.965 114.254 174.766 114.766C175.573 115.271 176.187 115.977 176.608 116.882C177.036 117.78 177.25 118.816 177.25 119.988C177.25 121.181 177.036 122.23 176.608 123.136C176.18 124.034 175.562 124.736 174.755 125.241C173.948 125.746 172.983 125.999 171.86 125.999ZM171.86 124.515C173.123 124.515 174.064 124.097 174.681 123.262C175.299 122.42 175.608 121.328 175.608 119.988C175.608 118.612 175.295 117.517 174.671 116.703C174.053 115.889 173.116 115.482 171.86 115.482C171.011 115.482 170.309 115.675 169.754 116.061C169.207 116.44 168.796 116.97 168.523 117.651C168.256 118.324 168.122 119.103 168.122 119.988C168.122 121.356 168.438 122.455 169.07 123.283C169.702 124.104 170.632 124.515 171.86 124.515ZM193.132 125.683L193.143 118.219C193.143 117.342 192.897 116.654 192.406 116.156C191.922 115.65 191.304 115.398 190.553 115.398C190.125 115.398 189.707 115.496 189.3 115.692C188.893 115.889 188.556 116.205 188.289 116.64C188.03 117.075 187.9 117.644 187.9 118.345L186.984 118.082C186.963 117.268 187.121 116.556 187.458 115.945C187.802 115.334 188.272 114.861 188.868 114.524C189.472 114.18 190.153 114.008 190.911 114.008C192.055 114.008 192.971 114.362 193.659 115.071C194.346 115.773 194.69 116.724 194.69 117.924L194.68 125.683H193.132ZM179.562 125.683V114.313H180.952V117.114H181.12V125.683H179.562ZM186.363 125.683L186.373 118.324C186.373 117.419 186.131 116.707 185.647 116.187C185.17 115.661 184.538 115.398 183.752 115.398C182.966 115.398 182.331 115.668 181.846 116.208C181.362 116.742 181.12 117.454 181.12 118.345L180.194 117.84C180.194 117.11 180.366 116.457 180.709 115.882C181.053 115.299 181.524 114.843 182.12 114.513C182.717 114.176 183.394 114.008 184.152 114.008C184.875 114.008 185.517 114.162 186.079 114.471C186.647 114.78 187.093 115.229 187.416 115.819C187.738 116.408 187.9 117.124 187.9 117.966L187.889 125.683H186.363ZM202.526 125.999C201.481 125.999 200.596 125.736 199.873 125.21C199.15 124.676 198.603 123.957 198.231 123.051C197.859 122.139 197.673 121.118 197.673 119.988C197.673 118.837 197.859 117.812 198.231 116.914C198.61 116.008 199.164 115.296 199.894 114.776C200.624 114.257 201.523 113.997 202.589 113.997C203.628 113.997 204.52 114.261 205.263 114.787C206.007 115.313 206.576 116.029 206.969 116.935C207.369 117.84 207.569 118.858 207.569 119.988C207.569 121.125 207.369 122.146 206.969 123.051C206.569 123.957 205.993 124.676 205.242 125.21C204.491 125.736 203.586 125.999 202.526 125.999ZM197.41 130.737V114.313H198.799V122.872H198.968V130.737H197.41ZM202.368 124.557C203.161 124.557 203.821 124.357 204.348 123.957C204.874 123.557 205.267 123.013 205.527 122.325C205.793 121.63 205.927 120.851 205.927 119.988C205.927 119.131 205.797 118.359 205.537 117.672C205.278 116.984 204.881 116.44 204.348 116.04C203.821 115.64 203.151 115.44 202.337 115.44C201.544 115.44 200.884 115.633 200.358 116.019C199.838 116.405 199.449 116.942 199.189 117.63C198.929 118.31 198.799 119.096 198.799 119.988C198.799 120.865 198.929 121.651 199.189 122.346C199.449 123.034 199.842 123.574 200.368 123.967C200.894 124.36 201.561 124.557 202.368 124.557ZM210.091 125.683V110.207H211.639V125.683H210.091ZM215.006 112.155V110.418H216.553V112.155H215.006ZM215.006 125.683V114.313H216.553V125.683H215.006ZM222.963 125.999C222.106 125.999 221.387 125.845 220.804 125.536C220.229 125.227 219.797 124.816 219.51 124.304C219.222 123.792 219.078 123.234 219.078 122.63C219.078 122.013 219.201 121.486 219.446 121.051C219.699 120.609 220.039 120.247 220.468 119.967C220.903 119.686 221.405 119.472 221.973 119.324C222.549 119.184 223.184 119.061 223.879 118.956C224.58 118.844 225.265 118.749 225.931 118.672C226.605 118.588 227.195 118.507 227.7 118.43L227.153 118.767C227.174 117.644 226.956 116.812 226.5 116.271C226.044 115.731 225.251 115.461 224.121 115.461C223.342 115.461 222.682 115.636 222.141 115.987C221.608 116.338 221.233 116.893 221.015 117.651L219.51 117.208C219.769 116.191 220.292 115.401 221.078 114.84C221.864 114.278 222.885 113.997 224.142 113.997C225.181 113.997 226.061 114.194 226.784 114.587C227.514 114.973 228.03 115.534 228.332 116.271C228.472 116.601 228.563 116.97 228.606 117.377C228.648 117.784 228.669 118.198 228.669 118.619V125.683H227.29V122.83L227.69 122.999C227.304 123.974 226.704 124.718 225.889 125.231C225.075 125.743 224.1 125.999 222.963 125.999ZM223.142 124.662C223.865 124.662 224.496 124.532 225.037 124.273C225.577 124.013 226.012 123.658 226.342 123.209C226.672 122.753 226.886 122.241 226.984 121.672C227.068 121.307 227.114 120.907 227.121 120.472C227.128 120.03 227.132 119.7 227.132 119.482L227.721 119.788C227.195 119.858 226.623 119.928 226.005 119.998C225.395 120.068 224.791 120.149 224.194 120.24C223.605 120.332 223.071 120.44 222.594 120.567C222.271 120.658 221.959 120.788 221.657 120.956C221.355 121.118 221.106 121.335 220.91 121.609C220.72 121.883 220.625 122.223 220.625 122.63C220.625 122.96 220.706 123.279 220.868 123.588C221.036 123.897 221.303 124.153 221.668 124.357C222.04 124.56 222.531 124.662 223.142 124.662ZM239.621 125.683V119.882C239.621 119.251 239.561 118.672 239.442 118.145C239.323 117.612 239.13 117.149 238.863 116.756C238.603 116.356 238.263 116.047 237.842 115.829C237.428 115.612 236.922 115.503 236.326 115.503C235.778 115.503 235.294 115.598 234.873 115.787C234.459 115.977 234.108 116.25 233.82 116.608C233.54 116.959 233.325 117.387 233.178 117.893C233.031 118.398 232.957 118.974 232.957 119.619L231.862 119.377C231.862 118.212 232.066 117.233 232.473 116.44C232.88 115.647 233.441 115.047 234.157 114.64C234.873 114.233 235.694 114.029 236.621 114.029C237.301 114.029 237.895 114.134 238.4 114.345C238.912 114.555 239.344 114.84 239.695 115.198C240.053 115.556 240.34 115.966 240.558 116.429C240.776 116.886 240.934 117.373 241.032 117.893C241.13 118.405 241.179 118.917 241.179 119.43V125.683H239.621ZM231.399 125.683V114.313H232.799V117.114H232.957V125.683H231.399ZM248.566 125.999C247.422 125.999 246.453 125.743 245.66 125.231C244.867 124.718 244.264 124.013 243.849 123.114C243.442 122.209 243.232 121.17 243.218 119.998C243.232 118.805 243.449 117.759 243.871 116.861C244.292 115.956 244.899 115.254 245.692 114.755C246.485 114.25 247.446 113.997 248.576 113.997C249.727 113.997 250.728 114.278 251.577 114.84C252.433 115.401 253.019 116.17 253.335 117.145L251.819 117.63C251.552 116.949 251.128 116.422 250.545 116.05C249.97 115.671 249.31 115.482 248.566 115.482C247.731 115.482 247.039 115.675 246.492 116.061C245.944 116.44 245.537 116.97 245.271 117.651C245.004 118.331 244.867 119.114 244.86 119.998C244.874 121.36 245.19 122.455 245.808 123.283C246.425 124.104 247.345 124.515 248.566 124.515C249.338 124.515 249.994 124.339 250.535 123.988C251.082 123.63 251.496 123.111 251.777 122.43L253.335 122.893C252.914 123.904 252.296 124.676 251.482 125.21C250.668 125.736 249.696 125.999 248.566 125.999ZM260.011 125.999C258.902 125.999 257.94 125.753 257.126 125.262C256.319 124.771 255.691 124.08 255.242 123.188C254.793 122.297 254.568 121.251 254.568 120.051C254.568 118.809 254.789 117.735 255.231 116.829C255.673 115.924 256.295 115.226 257.095 114.734C257.902 114.243 258.853 113.997 259.948 113.997C261.071 113.997 262.029 114.257 262.822 114.776C263.615 115.289 264.215 116.026 264.622 116.987C265.029 117.949 265.215 119.096 265.18 120.43H263.601V119.882C263.573 118.409 263.253 117.296 262.643 116.545C262.039 115.794 261.155 115.419 259.99 115.419C258.769 115.419 257.832 115.815 257.179 116.608C256.533 117.401 256.21 118.531 256.21 119.998C256.21 121.43 256.533 122.542 257.179 123.336C257.832 124.122 258.755 124.515 259.948 124.515C260.762 124.515 261.471 124.329 262.074 123.957C262.685 123.578 263.166 123.034 263.517 122.325L264.959 122.883C264.51 123.872 263.847 124.641 262.969 125.188C262.099 125.729 261.113 125.999 260.011 125.999ZM255.663 120.43V119.135H264.348V120.43H255.663ZM267.4 125.683V123.883H269.2V125.683H267.4ZM282.741 125.999C281.674 125.999 280.713 125.813 279.856 125.441C279 125.069 278.27 124.539 277.667 123.851C277.07 123.164 276.614 122.335 276.298 121.367C275.982 120.391 275.824 119.303 275.824 118.103C275.824 116.517 276.098 115.134 276.645 113.955C277.2 112.769 277.993 111.85 279.025 111.197C280.056 110.544 281.295 110.218 282.741 110.218C284.355 110.218 285.668 110.597 286.678 111.355C287.696 112.106 288.405 113.117 288.805 114.387L287.247 114.766C286.917 113.84 286.373 113.099 285.615 112.545C284.864 111.99 283.927 111.713 282.804 111.713C281.618 111.706 280.632 111.973 279.846 112.513C279.06 113.046 278.467 113.797 278.067 114.766C277.674 115.727 277.474 116.84 277.467 118.103C277.46 119.367 277.653 120.479 278.046 121.441C278.446 122.395 279.042 123.146 279.835 123.694C280.628 124.234 281.618 124.508 282.804 124.515C283.892 124.515 284.79 124.304 285.499 123.883C286.208 123.462 286.745 122.858 287.11 122.072C287.482 121.286 287.693 120.356 287.742 119.282H284.247V117.956H289.363C289.384 118.117 289.395 118.289 289.395 118.472C289.402 118.647 289.405 118.774 289.405 118.851C289.405 120.219 289.159 121.444 288.668 122.525C288.177 123.599 287.436 124.448 286.447 125.073C285.464 125.69 284.229 125.999 282.741 125.999ZM296.26 125.999C295.13 125.999 294.165 125.743 293.365 125.231C292.565 124.718 291.951 124.009 291.523 123.104C291.095 122.199 290.881 121.16 290.881 119.988C290.881 118.795 291.098 117.749 291.533 116.85C291.969 115.952 292.586 115.254 293.386 114.755C294.193 114.25 295.151 113.997 296.26 113.997C297.397 113.997 298.366 114.254 299.166 114.766C299.973 115.271 300.587 115.977 301.008 116.882C301.437 117.78 301.651 118.816 301.651 119.988C301.651 121.181 301.437 122.23 301.008 123.136C300.58 124.034 299.963 124.736 299.155 125.241C298.348 125.746 297.383 125.999 296.26 125.999ZM296.26 124.515C297.524 124.515 298.464 124.097 299.082 123.262C299.699 122.42 300.008 121.328 300.008 119.988C300.008 118.612 299.696 117.517 299.071 116.703C298.454 115.889 297.517 115.482 296.26 115.482C295.411 115.482 294.709 115.675 294.155 116.061C293.607 116.44 293.197 116.97 292.923 117.651C292.656 118.324 292.523 119.103 292.523 119.988C292.523 121.356 292.839 122.455 293.47 123.283C294.102 124.104 295.032 124.515 296.26 124.515ZM306.636 125.683L302.509 114.313H304.078L307.436 123.662L310.773 114.313H312.363L308.236 125.683H306.636ZM318.654 125.999C317.545 125.999 316.583 125.753 315.769 125.262C314.962 124.771 314.334 124.08 313.885 123.188C313.436 122.297 313.211 121.251 313.211 120.051C313.211 118.809 313.432 117.735 313.874 116.829C314.316 115.924 314.938 115.226 315.738 114.734C316.545 114.243 317.496 113.997 318.591 113.997C319.714 113.997 320.672 114.257 321.465 114.776C322.258 115.289 322.858 116.026 323.265 116.987C323.672 117.949 323.858 119.096 323.823 120.43H322.244V119.882C322.216 118.409 321.896 117.296 321.286 116.545C320.682 115.794 319.798 115.419 318.633 115.419C317.412 115.419 316.475 115.815 315.822 116.608C315.176 117.401 314.853 118.531 314.853 119.998C314.853 121.43 315.176 122.542 315.822 123.336C316.475 124.122 317.398 124.515 318.591 124.515C319.405 124.515 320.114 124.329 320.717 123.957C321.328 123.578 321.809 123.034 322.16 122.325L323.602 122.883C323.153 123.872 322.49 124.641 321.612 125.188C320.742 125.729 319.756 125.999 318.654 125.999ZM314.306 120.43V119.135H322.991V120.43H314.306ZM326.159 125.683V114.313H327.549V117.05L327.275 116.693C327.402 116.356 327.567 116.047 327.77 115.766C327.974 115.478 328.195 115.243 328.433 115.061C328.728 114.801 329.072 114.605 329.465 114.471C329.858 114.331 330.255 114.25 330.655 114.229C331.055 114.201 331.42 114.229 331.75 114.313V115.766C331.336 115.661 330.883 115.636 330.392 115.692C329.9 115.749 329.448 115.945 329.033 116.282C328.654 116.577 328.37 116.931 328.181 117.345C327.991 117.752 327.865 118.187 327.802 118.651C327.739 119.107 327.707 119.56 327.707 120.009V125.683H326.159ZM341.958 125.683V119.882C341.958 119.251 341.899 118.672 341.78 118.145C341.66 117.612 341.467 117.149 341.2 116.756C340.941 116.356 340.6 116.047 340.179 115.829C339.765 115.612 339.26 115.503 338.663 115.503C338.116 115.503 337.632 115.598 337.21 115.787C336.796 115.977 336.445 116.25 336.158 116.608C335.877 116.959 335.663 117.387 335.515 117.893C335.368 118.398 335.294 118.974 335.294 119.619L334.2 119.377C334.2 118.212 334.403 117.233 334.81 116.44C335.217 115.647 335.779 115.047 336.495 114.64C337.21 114.233 338.032 114.029 338.958 114.029C339.639 114.029 340.232 114.134 340.737 114.345C341.25 114.555 341.681 114.84 342.032 115.198C342.39 115.556 342.678 115.966 342.895 116.429C343.113 116.886 343.271 117.373 343.369 117.893C343.467 118.405 343.517 118.917 343.517 119.43V125.683H341.958ZM333.736 125.683V114.313H335.136V117.114H335.294V125.683H333.736ZM349.502 125.999C348.645 125.999 347.926 125.845 347.343 125.536C346.768 125.227 346.336 124.816 346.049 124.304C345.761 123.792 345.617 123.234 345.617 122.63C345.617 122.013 345.74 121.486 345.985 121.051C346.238 120.609 346.578 120.247 347.007 119.967C347.442 119.686 347.944 119.472 348.512 119.324C349.088 119.184 349.723 119.061 350.418 118.956C351.119 118.844 351.804 118.749 352.47 118.672C353.144 118.588 353.734 118.507 354.239 118.43L353.692 118.767C353.713 117.644 353.495 116.812 353.039 116.271C352.583 115.731 351.79 115.461 350.66 115.461C349.881 115.461 349.221 115.636 348.68 115.987C348.147 116.338 347.772 116.893 347.554 117.651L346.049 117.208C346.308 116.191 346.831 115.401 347.617 114.84C348.403 114.278 349.424 113.997 350.681 113.997C351.719 113.997 352.6 114.194 353.323 114.587C354.053 114.973 354.569 115.534 354.871 116.271C355.011 116.601 355.102 116.97 355.145 117.377C355.187 117.784 355.208 118.198 355.208 118.619V125.683H353.829V122.83L354.229 122.999C353.843 123.974 353.243 124.718 352.428 125.231C351.614 125.743 350.639 125.999 349.502 125.999ZM349.681 124.662C350.404 124.662 351.035 124.532 351.576 124.273C352.116 124.013 352.551 123.658 352.881 123.209C353.211 122.753 353.425 122.241 353.523 121.672C353.607 121.307 353.653 120.907 353.66 120.472C353.667 120.03 353.671 119.7 353.671 119.482L354.26 119.788C353.734 119.858 353.162 119.928 352.544 119.998C351.934 120.068 351.33 120.149 350.733 120.24C350.144 120.332 349.61 120.44 349.133 120.567C348.81 120.658 348.498 120.788 348.196 120.956C347.894 121.118 347.645 121.335 347.449 121.609C347.259 121.883 347.164 122.223 347.164 122.63C347.164 122.96 347.245 123.279 347.407 123.588C347.575 123.897 347.842 124.153 348.207 124.357C348.579 124.56 349.07 124.662 349.681 124.662ZM366.16 125.683V119.882C366.16 119.251 366.1 118.672 365.981 118.145C365.862 117.612 365.669 117.149 365.402 116.756C365.142 116.356 364.802 116.047 364.381 115.829C363.967 115.612 363.461 115.503 362.865 115.503C362.317 115.503 361.833 115.598 361.412 115.787C360.998 115.977 360.647 116.25 360.359 116.608C360.078 116.959 359.864 117.387 359.717 117.893C359.57 118.398 359.496 118.974 359.496 119.619L358.401 119.377C358.401 118.212 358.605 117.233 359.012 116.44C359.419 115.647 359.98 115.047 360.696 114.64C361.412 114.233 362.233 114.029 363.16 114.029C363.84 114.029 364.433 114.134 364.939 114.345C365.451 114.555 365.883 114.84 366.234 115.198C366.592 115.556 366.879 115.966 367.097 116.429C367.315 116.886 367.473 117.373 367.571 117.893C367.669 118.405 367.718 118.917 367.718 119.43V125.683H366.16ZM357.938 125.683V114.313H359.338V117.114H359.496V125.683H357.938ZM375.105 125.999C373.961 125.999 372.992 125.743 372.199 125.231C371.406 124.718 370.803 124.013 370.388 123.114C369.981 122.209 369.771 121.17 369.757 119.998C369.771 118.805 369.988 117.759 370.409 116.861C370.831 115.956 371.438 115.254 372.231 114.755C373.024 114.25 373.985 113.997 375.115 113.997C376.266 113.997 377.267 114.278 378.116 114.84C378.972 115.401 379.558 116.17 379.874 117.145L378.358 117.63C378.091 116.949 377.667 116.422 377.084 116.05C376.509 115.671 375.849 115.482 375.105 115.482C374.27 115.482 373.578 115.675 373.031 116.061C372.483 116.44 372.076 116.97 371.81 117.651C371.543 118.331 371.406 119.114 371.399 119.998C371.413 121.36 371.729 122.455 372.347 123.283C372.964 124.104 373.884 124.515 375.105 124.515C375.877 124.515 376.533 124.339 377.074 123.988C377.621 123.63 378.035 123.111 378.316 122.43L379.874 122.893C379.453 123.904 378.835 124.676 378.021 125.21C377.207 125.736 376.235 125.999 375.105 125.999ZM386.55 125.999C385.441 125.999 384.479 125.753 383.665 125.262C382.858 124.771 382.23 124.08 381.781 123.188C381.332 122.297 381.107 121.251 381.107 120.051C381.107 118.809 381.328 117.735 381.77 116.829C382.212 115.924 382.834 115.226 383.634 114.734C384.441 114.243 385.392 113.997 386.487 113.997C387.61 113.997 388.568 114.257 389.361 114.776C390.154 115.289 390.754 116.026 391.161 116.987C391.568 117.949 391.754 119.096 391.719 120.43H390.14V119.882C390.112 118.409 389.792 117.296 389.182 116.545C388.578 115.794 387.694 115.419 386.529 115.419C385.308 115.419 384.371 115.815 383.718 116.608C383.072 117.401 382.749 118.531 382.749 119.998C382.749 121.43 383.072 122.542 383.718 123.336C384.371 124.122 385.294 124.515 386.487 124.515C387.301 124.515 388.01 124.329 388.613 123.957C389.224 123.578 389.705 123.034 390.056 122.325L391.498 122.883C391.049 123.872 390.386 124.641 389.508 125.188C388.638 125.729 387.652 125.999 386.55 125.999ZM382.202 120.43V119.135H390.887V120.43H382.202ZM393.939 125.683V123.883H395.739V125.683H393.939ZM409.343 125.999C407.834 125.999 406.56 125.666 405.522 124.999C404.483 124.325 403.697 123.395 403.163 122.209C402.63 121.023 402.363 119.654 402.363 118.103C402.363 116.552 402.63 115.184 403.163 113.997C403.697 112.811 404.483 111.885 405.522 111.218C406.56 110.544 407.834 110.207 409.343 110.207C411.105 110.207 412.544 110.66 413.66 111.566C414.776 112.464 415.541 113.671 415.955 115.187L414.375 115.598C414.053 114.397 413.474 113.446 412.638 112.745C411.803 112.043 410.705 111.692 409.343 111.692C408.157 111.692 407.171 111.962 406.385 112.502C405.599 113.043 405.006 113.797 404.606 114.766C404.213 115.727 404.009 116.84 403.995 118.103C403.988 119.367 404.181 120.479 404.574 121.441C404.974 122.402 405.571 123.157 406.364 123.704C407.164 124.244 408.157 124.515 409.343 124.515C410.705 124.515 411.803 124.164 412.638 123.462C413.474 122.753 414.053 121.802 414.375 120.609L415.955 121.019C415.541 122.535 414.776 123.746 413.66 124.652C412.544 125.55 411.105 125.999 409.343 125.999ZM419.899 130.737L422.099 124.767L422.131 126.536L417.151 114.313H418.793L422.878 124.536H422.204L425.973 114.313H427.552L421.446 130.737H419.899ZM434.487 125.999C433.441 125.999 432.557 125.736 431.834 125.21C431.111 124.676 430.564 123.957 430.192 123.051C429.82 122.139 429.634 121.118 429.634 119.988C429.634 118.837 429.82 117.812 430.192 116.914C430.571 116.008 431.125 115.296 431.855 114.776C432.585 114.257 433.483 113.997 434.55 113.997C435.589 113.997 436.48 114.261 437.224 114.787C437.968 115.313 438.537 116.029 438.93 116.935C439.33 117.84 439.53 118.858 439.53 119.988C439.53 121.125 439.33 122.146 438.93 123.051C438.53 123.957 437.954 124.676 437.203 125.21C436.452 125.736 435.547 125.999 434.487 125.999ZM429.37 125.683V110.523H430.929V117.124H430.76V125.683H429.37ZM434.329 124.557C435.122 124.557 435.782 124.357 436.308 123.957C436.835 123.557 437.228 123.013 437.487 122.325C437.754 121.63 437.887 120.851 437.887 119.988C437.887 119.131 437.758 118.359 437.498 117.672C437.238 116.984 436.842 116.44 436.308 116.04C435.782 115.64 435.112 115.44 434.297 115.44C433.504 115.44 432.845 115.633 432.318 116.019C431.799 116.405 431.409 116.942 431.15 117.63C430.89 118.31 430.76 119.096 430.76 119.988C430.76 120.865 430.89 121.651 431.15 122.346C431.409 123.034 431.802 123.574 432.329 123.967C432.855 124.36 433.522 124.557 434.329 124.557ZM446.653 125.999C445.544 125.999 444.582 125.753 443.768 125.262C442.961 124.771 442.333 124.08 441.884 123.188C441.435 122.297 441.21 121.251 441.21 120.051C441.21 118.809 441.431 117.735 441.873 116.829C442.315 115.924 442.937 115.226 443.737 114.734C444.544 114.243 445.495 113.997 446.59 113.997C447.713 113.997 448.671 114.257 449.464 114.776C450.257 115.289 450.857 116.026 451.264 116.987C451.671 117.949 451.857 119.096 451.822 120.43H450.243V119.882C450.215 118.409 449.895 117.296 449.285 116.545C448.681 115.794 447.797 115.419 446.632 115.419C445.411 115.419 444.474 115.815 443.821 116.608C443.175 117.401 442.852 118.531 442.852 119.998C442.852 121.43 443.175 122.542 443.821 123.336C444.474 124.122 445.397 124.515 446.59 124.515C447.404 124.515 448.113 124.329 448.716 123.957C449.327 123.578 449.808 123.034 450.159 122.325L451.601 122.883C451.152 123.872 450.488 124.641 449.611 125.188C448.741 125.729 447.755 125.999 446.653 125.999ZM442.305 120.43V119.135H450.99V120.43H442.305ZM454.158 125.683V114.313H455.548V117.05L455.274 116.693C455.401 116.356 455.566 116.047 455.769 115.766C455.973 115.478 456.194 115.243 456.432 115.061C456.727 114.801 457.071 114.605 457.464 114.471C457.857 114.331 458.254 114.25 458.654 114.229C459.054 114.201 459.419 114.229 459.749 114.313V115.766C459.334 115.661 458.882 115.636 458.39 115.692C457.899 115.749 457.446 115.945 457.032 116.282C456.653 116.577 456.369 116.931 456.18 117.345C455.99 117.752 455.864 118.187 455.801 118.651C455.737 119.107 455.706 119.56 455.706 120.009V125.683H454.158ZM469.993 125.683V112.008H464.698V110.523H476.836V112.008H471.541V125.683H469.993ZM477.476 125.683V114.313H478.865V117.05L478.592 116.693C478.718 116.356 478.883 116.047 479.086 115.766C479.29 115.478 479.511 115.243 479.75 115.061C480.044 114.801 480.388 114.605 480.781 114.471C481.174 114.331 481.571 114.25 481.971 114.229C482.371 114.201 482.736 114.229 483.066 114.313V115.766C482.652 115.661 482.199 115.636 481.708 115.692C481.217 115.749 480.764 115.945 480.35 116.282C479.971 116.577 479.687 116.931 479.497 117.345C479.308 117.752 479.181 118.187 479.118 118.651C479.055 119.107 479.023 119.56 479.023 120.009V125.683H477.476ZM489.411 125.968C488.73 125.968 488.134 125.862 487.621 125.652C487.116 125.441 486.684 125.157 486.326 124.799C485.975 124.441 485.691 124.034 485.474 123.578C485.256 123.114 485.098 122.627 485 122.114C484.902 121.595 484.853 121.079 484.853 120.567V114.313H486.411V120.114C486.411 120.739 486.47 121.318 486.59 121.851C486.709 122.385 486.898 122.851 487.158 123.251C487.425 123.644 487.765 123.95 488.179 124.167C488.6 124.385 489.109 124.494 489.706 124.494C490.253 124.494 490.734 124.399 491.148 124.209C491.569 124.02 491.92 123.75 492.201 123.399C492.489 123.041 492.706 122.609 492.854 122.104C493.001 121.591 493.075 121.016 493.075 120.377L494.17 120.619C494.17 121.784 493.966 122.764 493.559 123.557C493.152 124.35 492.59 124.95 491.875 125.357C491.159 125.764 490.338 125.968 489.411 125.968ZM493.233 125.683V122.883H493.075V114.313H494.622V125.683H493.233ZM501.808 125.989C500.474 125.989 499.376 125.701 498.512 125.125C497.656 124.55 497.13 123.75 496.933 122.725L498.512 122.462C498.681 123.107 499.063 123.623 499.66 124.009C500.263 124.388 501.007 124.578 501.892 124.578C502.755 124.578 503.436 124.399 503.934 124.041C504.432 123.676 504.682 123.181 504.682 122.557C504.682 122.206 504.601 121.921 504.439 121.704C504.285 121.479 503.966 121.272 503.481 121.083C502.997 120.893 502.274 120.669 501.313 120.409C500.281 120.128 499.474 119.847 498.891 119.567C498.309 119.286 497.895 118.963 497.649 118.598C497.403 118.226 497.281 117.773 497.281 117.24C497.281 116.594 497.463 116.029 497.828 115.545C498.193 115.054 498.698 114.675 499.344 114.408C499.99 114.134 500.741 113.997 501.597 113.997C502.453 113.997 503.218 114.138 503.892 114.419C504.573 114.692 505.12 115.078 505.534 115.577C505.948 116.075 506.194 116.654 506.271 117.314L504.692 117.598C504.587 116.931 504.253 116.405 503.692 116.019C503.138 115.626 502.432 115.422 501.576 115.408C500.769 115.387 500.113 115.541 499.607 115.871C499.102 116.194 498.849 116.626 498.849 117.166C498.849 117.468 498.94 117.728 499.123 117.945C499.305 118.156 499.635 118.356 500.113 118.545C500.597 118.735 501.285 118.942 502.176 119.167C503.222 119.433 504.043 119.714 504.639 120.009C505.236 120.304 505.661 120.651 505.913 121.051C506.166 121.451 506.292 121.946 506.292 122.535C506.292 123.609 505.892 124.455 505.092 125.073C504.299 125.683 503.204 125.989 501.808 125.989ZM514.818 125.683C514.179 125.817 513.547 125.869 512.923 125.841C512.305 125.813 511.75 125.68 511.259 125.441C510.775 125.202 510.406 124.831 510.154 124.325C509.95 123.904 509.838 123.479 509.817 123.051C509.803 122.616 509.796 122.121 509.796 121.567V111.155H511.333V121.504C511.333 121.981 511.336 122.381 511.343 122.704C511.357 123.02 511.431 123.3 511.564 123.546C511.817 124.016 512.217 124.297 512.765 124.388C513.319 124.48 514.003 124.459 514.818 124.325V125.683ZM507.364 115.64V114.313H514.818V115.64H507.364ZM517.352 125.683V123.883H519.153V125.683H517.352Z" fill="white"/>
<path d="M66.2866 0C88.93 17.1695 103.361 22.4453 132.023 23.4868C128.606 89.4652 121.296 128.618 66.2866 158.536C13.7524 130.575 3.12053 95.9541 0 23.4868C29.2199 22.232 43.6989 17.0077 66.2866 0Z" fill="#044143"/>
<path d="M84.2585 70.3456L82.3625 69.4999C81.7221 69.2144 81.5612 68.845 81.8476 68.1721C82.1931 67.3529 82.5697 66.5442 82.9312 65.7293C83.3586 64.7043 83.3756 63.5518 82.9786 62.507C82.5816 61.4619 81.8009 60.6024 80.7941 60.1031C80.1639 59.8221 79.5033 59.6226 78.8601 59.3567C78.019 59.0083 77.8731 58.6721 78.2202 57.8626C78.7586 56.6146 79.3313 55.3575 79.8867 54.1053C80.1809 53.4418 80.6085 53.2724 81.2772 53.5617C82.5705 54.1178 83.8553 54.6938 85.1344 55.2819C85.8026 55.58 85.9435 55.9881 85.6507 56.682C85.3351 57.4341 84.9894 58.1732 84.6499 58.9384C84.273 59.83 84.1934 60.8212 84.4235 61.7668C84.6533 62.7125 85.1803 63.5638 85.9276 64.196C86.5088 64.658 87.1843 64.9879 87.9058 65.1615C88.2388 65.2519 88.5595 65.3829 88.8607 65.5517C89.3923 65.8452 89.5641 66.2791 89.3286 66.823C88.7508 68.1664 88.1654 69.5068 87.5507 70.8312C87.3104 71.3728 86.8576 71.5191 86.2883 71.2563C85.6097 70.942 84.9369 70.6476 84.2588 70.345L84.2585 70.3456Z" fill="white"/>
<path d="M67.7307 59.2228L65.8168 58.4181C65.1705 58.1464 65.0016 57.7804 65.2736 57.1016C65.6015 56.275 65.9605 55.4586 66.3045 54.636C66.71 53.6023 66.7021 52.4495 66.2827 51.4135C65.8633 50.3772 65.0645 49.5344 64.0472 49.0573C63.411 48.7899 62.7465 48.6047 62.0976 48.3529C61.2495 48.0227 61.0962 47.6897 61.4257 46.8731C61.9375 45.6137 62.4827 44.3447 63.0115 43.0805C63.2914 42.4111 63.7151 42.2323 64.3901 42.5071C65.695 43.0353 66.9917 43.5835 68.2833 44.1438C68.9577 44.4274 69.1073 44.8326 68.8293 45.5325C68.5298 46.2914 68.2 47.0376 67.8769 47.8099C67.5193 48.7095 67.4609 49.7021 67.7112 50.6426C67.9611 51.5831 68.5063 52.4228 69.2669 53.0388C69.8577 53.4884 70.5403 53.8035 71.2655 53.9615C71.6004 54.0447 71.9237 54.1686 72.2286 54.3309C72.7665 54.613 72.9473 55.0429 72.7237 55.5919C72.1748 56.9476 71.6183 58.3001 71.0322 59.6376C70.8038 60.1843 70.3539 60.3403 69.7792 60.0897C69.094 59.7899 68.415 59.5106 67.7307 59.2228Z" fill="white"/>
<path d="M46.3506 50.3722V52.453C46.3506 53.1557 46.6217 53.4535 47.3511 53.4646C48.2381 53.481 49.1279 53.4646 50.0173 53.4646C51.1248 53.4893 52.182 53.9422 52.9726 54.7307C53.7638 55.5192 54.2296 56.584 54.2753 57.7092C54.2753 58.4008 54.1885 59.087 54.1696 59.7843C54.1452 60.6964 54.3923 60.9667 55.271 60.9778C56.6269 60.9914 58.005 60.9778 59.3719 60.9778C60.0959 60.9778 60.4241 60.655 60.4323 59.9247C60.4513 58.5136 60.4485 57.1025 60.4323 55.6914C60.4323 54.958 60.1175 54.6631 59.3663 54.6495C58.5524 54.633 57.7389 54.6495 56.9035 54.6495C55.9378 54.6324 55.0024 54.3025 54.2342 53.7075C53.4657 53.1128 52.9043 52.2839 52.6317 51.3422C52.447 50.6219 52.4206 49.8689 52.5558 49.1372C52.6088 48.7954 52.6198 48.4482 52.5884 48.1038C52.5368 47.4974 52.2115 47.1638 51.6201 47.1584C50.161 47.1419 48.7019 47.1337 47.2451 47.1584C46.654 47.1584 46.3367 47.5139 46.3449 48.1424C46.3557 48.892 46.3506 49.628 46.3506 50.3722Z" fill="white"/>
<path d="M82.0125 78.2591L81.2026 80.1751C80.9291 80.8221 80.5636 80.99 79.8878 80.7147C79.0649 80.3828 78.2519 80.0194 77.4329 79.6713C76.4035 79.2607 75.2541 79.2641 74.2192 79.6807C73.1841 80.097 72.3408 80.8951 71.8608 81.9133C71.5916 82.55 71.4043 83.2158 71.1506 83.8654C70.8182 84.7147 70.4856 84.8667 69.6723 84.5331C68.4184 84.0151 67.1551 83.4633 65.8964 82.9285C65.2296 82.6452 65.0531 82.2196 65.3297 81.5441C65.8613 80.2376 66.413 78.9393 66.9769 77.6467C67.2622 76.9716 67.6669 76.8233 68.364 77.1046C69.1197 77.4078 69.8624 77.7414 70.6315 78.0684C71.5272 78.4304 72.5168 78.4929 73.4559 78.2457C74.3947 77.9988 75.2343 77.4555 75.8517 76.6951C76.3023 76.1044 76.6194 75.4213 76.7798 74.6947C76.8639 74.3594 76.9889 74.0355 77.1518 73.7303C77.4352 73.1921 77.8648 73.0126 78.4114 73.2387C79.7614 73.7945 81.1079 74.3577 82.4395 74.9507C82.9836 75.182 83.1377 75.6335 82.8855 76.209C82.584 76.8949 82.3024 77.5746 82.0127 78.2597L82.0125 78.2591Z" fill="white"/>
<path d="M46.3506 74.0852V76.166C46.3506 76.8687 46.6217 77.1665 47.3511 77.1776C48.2381 77.194 49.1279 77.1776 50.0173 77.1776C51.1248 77.2023 52.182 77.6552 52.9726 78.4437C53.7638 79.2323 54.2296 80.297 54.2753 81.4222C54.2753 82.1138 54.1885 82.8 54.1696 83.4973C54.1452 84.4095 54.3923 84.6797 55.271 84.6908C56.6269 84.7044 58.005 84.6908 59.3719 84.6908C60.0959 84.6908 60.4241 84.368 60.4323 83.6377C60.4513 82.2266 60.4484 80.8155 60.4323 79.4044C60.4323 78.6711 60.1175 78.3761 59.3663 78.3625C58.5524 78.346 57.7389 78.3625 56.9035 78.3625C55.9378 78.3454 55.0024 78.0155 54.2342 77.4205C53.4657 76.8258 52.9043 75.9969 52.6317 75.0553C52.447 74.3349 52.4206 73.5819 52.5558 72.8503C52.6088 72.5084 52.6198 72.1612 52.5884 71.8168C52.5368 71.2104 52.2115 70.8768 51.6201 70.8714C50.161 70.855 48.7019 70.8467 47.2451 70.8714C46.654 70.8714 46.3367 71.2269 46.3449 71.8554C46.3557 72.605 46.3506 73.341 46.3506 74.0852Z" fill="white"/>
<path d="M56.5001 40.8504V42.9395C56.5001 43.6422 56.2289 43.9811 55.5265 43.9951C54.1161 44.0172 52.7055 44.0172 51.2952 43.9951C50.6009 43.9951 50.319 43.6561 50.3108 42.9423C50.2909 41.5588 50.283 40.1733 50.2864 38.786C50.2864 37.9756 50.5576 37.7168 51.3386 37.7057C52.6948 37.6864 54.0674 37.6534 55.4315 37.6423C56.2454 37.6423 56.4894 37.9015 56.4998 38.7144C56.5081 39.42 56.5001 40.1338 56.5001 40.8504Z" fill="white"/>
<path d="M71.0037 39.229L69.9156 41.0103C69.5495 41.6096 69.1417 41.7568 68.5356 41.4004C67.3213 40.6807 66.1187 39.9416 64.9274 39.1841C64.3355 38.8204 64.2714 38.3836 64.6364 37.7707C65.34 36.5804 66.055 35.3949 66.7807 34.2137C67.2029 33.5227 67.569 33.444 68.2406 33.8435C69.4072 34.5374 70.5948 35.2281 71.764 35.9334C72.458 36.3596 72.5311 36.7083 72.1165 37.4073C71.7561 38.0134 71.3772 38.6181 71.0037 39.229Z" fill="white"/>
<path d="M79.8952 48.4931L78.0392 49.4421C77.4149 49.7615 76.9904 49.6732 76.6592 49.052C75.9989 47.8023 75.3579 46.5421 74.7368 45.2722C74.4214 44.6522 74.5945 44.2462 75.2248 43.9146C76.4449 43.2681 77.6719 42.6316 78.906 42.0045C79.6258 41.6363 79.9791 41.761 80.3438 42.4538C80.9771 43.6566 81.63 44.8676 82.2597 46.0812C82.6295 46.8081 82.5102 47.1437 81.7927 47.5227C81.1696 47.8506 80.5317 48.1674 79.895 48.4931H79.8952Z" fill="white"/>
<path d="M75.4753 67.6759L73.6193 68.6249C72.995 68.9443 72.5705 68.8559 72.2392 68.2348C71.579 66.9851 70.938 65.7249 70.3169 64.455C70.0015 63.835 70.1746 63.429 70.8048 63.0974C72.025 62.4509 73.252 61.8144 74.4861 61.1873C75.2058 60.819 75.5592 60.9438 75.9239 61.6365C76.5572 62.8393 77.2101 64.0504 77.8398 65.264C78.2095 65.9908 78.0903 66.3264 77.3728 66.7055C76.7496 67.0334 76.1121 67.3502 75.4753 67.6759Z" fill="white"/>
<path d="M90.9757 59.4717L88.8986 59.3089C88.1998 59.254 87.8838 58.9565 87.9249 58.2533C88.0128 56.8416 88.1227 55.4314 88.2548 54.0234C88.3089 53.3295 88.6679 53.0738 89.3783 53.1212C90.7555 53.209 92.1335 53.3091 93.5124 53.4207C94.318 53.4838 94.5544 53.7751 94.5045 54.5568C94.4181 55.9141 94.3438 57.2889 94.2486 58.6536C94.1851 59.4671 93.9086 59.6908 93.0995 59.6382C92.3973 59.5916 91.6881 59.5277 90.9757 59.4717Z" fill="white"/>
<path d="M90.3211 74.251L88.6347 73.0243C88.0674 72.6117 87.9529 72.1926 88.3542 71.6144C89.1646 70.4567 89.9929 69.3116 90.8388 68.1801C91.2463 67.6167 91.6858 67.5868 92.2667 67.9991C93.395 68.7953 94.518 69.6026 95.6359 70.4198C96.2899 70.8957 96.3398 71.2677 95.8901 71.9082C95.1091 73.0203 94.3299 74.1538 93.5379 75.2677C93.0601 75.928 92.7076 75.9741 92.0451 75.5052C91.4707 75.0975 90.8994 74.6718 90.3208 74.251H90.3211Z" fill="white"/>
<path d="M83.3966 85.8545L82.5975 83.9251C82.3286 83.2761 82.4496 82.8587 83.0928 82.576C84.387 82.0134 85.6896 81.4706 87.0005 80.9486C87.6415 80.6818 88.0316 80.8861 88.3125 81.5422C88.8599 82.8124 89.3972 84.0888 89.9246 85.3711C90.2346 86.1196 90.0832 86.4631 89.366 86.7737C88.1209 87.313 86.8659 87.8714 85.6103 88.4064C84.8588 88.7193 84.5343 88.5738 84.2135 87.827C83.9361 87.1786 83.6706 86.5163 83.3966 85.8545Z" fill="white"/>
<path d="M71.0533 92.1344L71.3769 90.0706C71.4857 89.3765 71.8062 89.0838 72.5021 89.1795C73.8989 89.3776 75.2922 89.5972 76.6821 89.8388C77.3679 89.947 77.594 90.3258 77.4914 91.0322C77.2967 92.4021 77.0899 93.772 76.8714 95.1416C76.7459 95.942 76.4378 96.1557 75.6645 96.0449C74.3216 95.8525 72.9606 95.6715 71.6112 95.4698C70.8073 95.343 70.6064 95.0489 70.722 94.2442C70.8232 93.5461 70.9419 92.8419 71.053 92.1341L71.0533 92.1344Z" fill="white"/>
<path d="M52.5513 89.6076L53.9024 88.0172C54.3569 87.4822 54.7825 87.4006 55.326 87.8467C56.4139 88.7469 57.4875 89.6644 58.5468 90.5981C59.0753 91.0497 59.0707 91.4909 58.6154 92.0399C57.7358 93.1061 56.8457 94.1659 55.946 95.2196C55.4221 95.8364 55.048 95.8572 54.4464 95.3576C53.4014 94.4904 52.3353 93.6229 51.2897 92.7443C50.6703 92.2152 50.6521 91.8592 51.1698 91.2335C51.6198 90.6911 52.0877 90.1532 52.5513 89.6076Z" fill="white"/>
<path d="M44.0195 62.0099L45.3706 60.4195C45.8251 59.8844 46.2508 59.8029 46.7943 60.249C47.8821 61.1492 48.9558 62.0667 50.015 63.0004C50.5435 63.4519 50.539 63.8932 50.0836 64.4422C49.204 65.5083 48.314 66.5682 47.4143 67.6218C46.8903 68.2387 46.5163 68.2594 45.9147 67.7599C44.8696 66.8927 43.8036 66.0252 42.758 65.1466C42.1385 64.6175 42.1204 64.2615 42.6381 63.6358C43.0881 63.0933 43.5559 62.5554 44.0195 62.0099Z" fill="white"/>
<path d="M59.4907 67.2987L60.8418 65.7083C61.2963 65.1733 61.722 65.0917 62.2655 65.5378C63.3533 66.438 64.427 67.3555 65.4862 68.2892C66.0147 68.7408 66.0102 69.182 65.5548 69.731C64.6752 70.7972 63.7852 71.857 62.8855 72.9107C62.3615 73.5275 61.9875 73.5483 61.3859 73.0488C60.3408 72.1815 59.2748 71.314 58.2292 70.4354C57.6097 69.9063 57.5916 69.5503 58.1093 68.9246C58.5593 68.3822 59.0271 67.8443 59.4907 67.2987Z" fill="white"/>
<path d="M41.6706 80.5099L43.651 79.8614C44.3172 79.6432 44.7227 79.7966 44.954 80.4618C45.4127 81.7993 45.8505 83.1439 46.2674 84.4951C46.4827 85.1568 46.249 85.5308 45.5748 85.7604C44.2693 86.2088 42.9585 86.6464 41.6422 87.0737C40.874 87.3252 40.5442 87.1473 40.2914 86.406C39.8522 85.1191 39.3948 83.8211 38.961 82.5239C38.7085 81.7482 38.8782 81.4353 39.6459 81.1728C40.3121 80.946 40.9916 80.7324 41.6708 80.5099H41.6706Z" fill="white"/>
<path d="M39.5718 67.6012L41.5984 68.0857C42.2802 68.2488 42.5463 68.5918 42.3967 69.28C42.0909 70.6606 41.7639 72.0368 41.4157 73.4072C41.2547 74.0844 40.8606 74.281 40.166 74.1233C38.8192 73.8218 37.4734 73.5084 36.1286 73.1833C35.3425 72.9955 35.1541 72.671 35.3244 71.9064C35.6202 70.5788 35.9064 69.2325 36.2119 67.8993C36.4006 67.1056 36.7083 66.9275 37.4995 67.1057C38.1858 67.2611 38.8764 67.4347 39.5715 67.6009L39.5718 67.6012Z" fill="white"/>
<path d="M41.8311 54.2151L43.3069 55.6895C43.8033 56.1857 43.8515 56.6176 43.3655 57.1262C42.3856 58.1435 41.3899 59.1456 40.3788 60.1316C39.8889 60.6246 39.4502 60.5857 38.9402 60.0879C37.9487 59.1255 36.9645 58.1531 35.9869 57.1717C35.4145 56.5997 35.4227 56.2243 35.9665 55.6617C36.9101 54.6845 37.8557 53.6863 38.8107 52.7097C39.3851 52.1317 39.7404 52.1411 40.3222 52.7074C40.8263 53.1995 41.3247 53.7093 41.8311 54.2151Z" fill="white"/>
<path d="M87.3262 112.606H66.8406V90.395C66.8406 90.0364 66.5507 89.7457 66.1931 89.7457H62.7085C62.3509 89.7457 62.061 90.0364 62.061 90.395V112.606H42.209C41.8514 112.606 41.5615 112.897 41.5615 113.255V116.75C41.5615 117.108 41.8514 117.399 42.209 117.399H87.3262C87.6838 117.399 87.9737 117.108 87.9737 116.75V113.255C87.9737 112.897 87.6838 112.606 87.3262 112.606Z" fill="white"/>
<circle cx="107.608" cy="21.8471" r="19.8159" fill="#14A4A9"/>
<path d="M103.286 30.3044C102.037 32.2487 99.5125 29.4417 95.2231 24.8923C96.8431 23.7122 99.0891 23.9272 100.456 25.3933L101.803 26.8382C108.453 19.2935 112.464 16.1379 119.993 11.9396C111.956 18.7068 109.113 22.261 103.286 30.3044Z" fill="white"/>
</svg>
